{"asset":{"version":"2.0","generator":"babylon.js glTF exporter for Maya 2018 v20200617.6"},"scene":0,"scenes":[{"nodes":[0,1]}],"nodes":[{"mesh":0,"name":"REAL_LOW_CANTILEVER:Mesh"},{"mesh":1,"name":"CargasCantilever2:Mesh"}],"meshes":[{"primitives":[{"attributes":{"POSITION":1,"TANGENT":2,"NORMAL":3,"TEXCOORD_0":4},"indices":0,"material":0}],"name":"REAL_LOW_CANTILEVER:Mesh"},{"primitives":[{"attributes":{"POSITION":6,"TANGENT":7,"NORMAL":8,"TEXCOORD_0":9},"indices":5,"material":1}],"name":"CargasCantilever2:Mesh"}],"accessors":[{"bufferView":0,"componentType":5125,"count":338298,"type":"SCALAR","name":"accessorIndices"},{"bufferView":1,"componentType":5126,"count":124562,"max":[13.35327,3.98563313,-4.349523],"min":[-0.550403833,-3.57940364,-14.2698555],"type":"VEC3","name":"accessorPositions"},{"bufferView":2,"componentType":5126,"count":124562,"type":"VEC4","name":"accessorTangents"},{"bufferView":1,"byteOffset":1494744,"componentType":5126,"count":124562,"type":"VEC3","name":"accessorNormals"},{"bufferView":3,"componentType":5126,"count":124562,"type":"VEC2","name":"accessorUVs"},{"bufferView":0,"byteOffset":1353192,"componentType":5123,"count":11628,"type":"SCALAR","name":"accessorIndices"},{"bufferView":1,"byteOffset":2989488,"componentType":5126,"count":3702,"max":[13.6665583,1.13879848,-4.80893],"min":[-1.29257762,-1.79167175,-14.1573029],"type":"VEC3","name":"accessorPositions"},{"bufferView":2,"byteOffset":1992992,"componentType":5126,"count":3702,"type":"VEC4","name":"accessorTangents"},{"bufferView":1,"byteOffset":3033912,"componentType":5126,"count":3702,"type":"VEC3","name":"accessorNormals"},{"bufferView":3,"byteOffset":996496,"componentType":5126,"count":3702,"type":"VEC2","name":"accessorUVs"}],"bufferViews":[{"buffer":0,"byteLength":1376448,"name":"bufferViewScalar"},{"buffer":0,"byteOffset":1376448,"byteLength":3078336,"byteStride":12,"name":"bufferViewFloatVec3"},{"buffer":0,"byteOffset":4454784,"byteLength":2052224,"byteStride":16,"name":"bufferViewFloatVec4"},{"buffer":0,"byteOffset":6507008,"byteLength":1026112,"byteStride":8,"name":"bufferViewFloatVec2"}],"buffers":[{"uri":"Cantilever.bin","byteLength":7533120}],"materials":[{"pbrMetallicRoughness":{"baseColorTexture":{"index":0},"metallicRoughnessTexture":{"index":1}},"alphaMode":"MASK","doubleSided":true,"name":"aiStandardSurface1"},{"pbrMetallicRoughness":{"baseColorTexture":{"index":2},"metallicFactor":0.0,"roughnessFactor":0.2},"alphaMode":"MASK","doubleSided":true,"name":"aiStandardSurface2"}],"textures":[{"sampler":0,"source":0,"name":"BaseColor_Alpha.png"},{"sampler":0,"source":1,"name":"file3file2.jpg"},{"sampler":0,"source":2,"name":"CargasCantilever_DefaultMaterial_BaseColor.jpg"}],"images":[{"uri":"BaseColor_Alpha.png"},{"uri":"file3file2.jpg"},{"uri":"CargasCantilever_DefaultMaterial_BaseColor.jpg"}],"samplers":[{"magFilter":9729,"minFilter":9987}]}