{"asset":{"version":"2.0","generator":"babylon.js glTF exporter for Maya 2018 v20200617.6"},"scene":0,"scenes":[{"nodes":[0]}],"nodes":[{"mesh":0,"translation":[0.0,0.0,11.7355089],"name":"unido:Separador_30SeparadoresEstanteria_Convencional1"}],"meshes":[{"primitives":[{"attributes":{"POSITION":1,"TANGENT":2,"NORMAL":3,"TEXCOORD_0":4},"indices":0,"material":0}],"name":"unido:Separador_30SeparadoresEstanteria_Convencional1"}],"accessors":[{"bufferView":0,"componentType":5125,"count":1321968,"type":"SCALAR","name":"accessorIndices"},{"bufferView":1,"componentType":5126,"count":547601,"max":[11.5141487,12.1629171,-4.6418767],"min":[-2.78505921,0.00219789986,-18.8291416],"type":"VEC3","name":"accessorPositions"},{"bufferView":2,"componentType":5126,"count":547601,"type":"VEC4","name":"accessorTangents"},{"bufferView":1,"byteOffset":6571212,"componentType":5126,"count":547601,"type":"VEC3","name":"accessorNormals"},{"bufferView":3,"componentType":5126,"count":547601,"type":"VEC2","name":"accessorUVs"}],"bufferViews":[{"buffer":0,"byteLength":5287872,"name":"bufferViewScalar"},{"buffer":0,"byteOffset":5287872,"byteLength":13142424,"byteStride":12,"name":"bufferViewFloatVec3"},{"buffer":0,"byteOffset":18430296,"byteLength":8761616,"byteStride":16,"name":"bufferViewFloatVec4"},{"buffer":0,"byteOffset":27191912,"byteLength":4380808,"byteStride":8,"name":"bufferViewFloatVec2"}],"buffers":[{"uri":"Convencional_AR_2.bin","byteLength":31572720}],"materials":[{"pbrMetallicRoughness":{"baseColorFactor":[0.5,0.5,0.5,1.0],"metallicFactor":0.0,"roughnessFactor":0.450053632},"doubleSided":true,"name":"lambert2"}]}