{"asset":{"version":"2.0","generator":"babylon.js glTF exporter for Maya 2018 v20200617.6"},"scene":0,"scenes":[{"nodes":[0]}],"nodes":[{"mesh":0,"name":"Caja_89"}],"meshes":[{"primitives":[{"attributes":{"POSITION":1,"TANGENT":2,"NORMAL":3,"TEXCOORD_0":4},"indices":0,"material":0},{"attributes":{"POSITION":6,"TANGENT":7,"NORMAL":8,"TEXCOORD_0":9},"indices":5,"material":0},{"attributes":{"POSITION":11,"TANGENT":12,"NORMAL":13,"TEXCOORD_0":14},"indices":10,"material":0},{"attributes":{"POSITION":16,"TANGENT":17,"NORMAL":18,"TEXCOORD_0":19},"indices":15,"material":0},{"attributes":{"POSITION":21,"TANGENT":22,"NORMAL":23,"TEXCOORD_0":24},"indices":20,"material":0},{"attributes":{"POSITION":26,"TANGENT":27,"NORMAL":28,"TEXCOORD_0":29},"indices":25,"material":0},{"attributes":{"POSITION":31,"TANGENT":32,"NORMAL":33,"TEXCOORD_0":34},"indices":30,"material":0},{"attributes":{"POSITION":36,"TANGENT":37,"NORMAL":38,"TEXCOORD_0":39},"indices":35,"material":0},{"attributes":{"POSITION":41,"TANGENT":42,"NORMAL":43,"TEXCOORD_0":44},"indices":40,"material":0},{"attributes":{"POSITION":46,"TANGENT":47,"NORMAL":48,"TEXCOORD_0":49},"indices":45,"material":0},{"attributes":{"POSITION":51,"TANGENT":52,"NORMAL":53,"TEXCOORD_0":54},"indices":50,"material":1},{"attributes":{"POSITION":56,"TANGENT":57,"NORMAL":58,"TEXCOORD_0":59},"indices":55,"material":1},{"attributes":{"POSITION":61,"TANGENT":62,"NORMAL":63,"TEXCOORD_0":64},"indices":60,"material":1},{"attributes":{"POSITION":66,"TANGENT":67,"NORMAL":68,"TEXCOORD_0":69},"indices":65,"material":1},{"attributes":{"POSITION":71,"TANGENT":72,"NORMAL":73,"TEXCOORD_0":74},"indices":70,"material":1},{"attributes":{"POSITION":76,"TANGENT":77,"NORMAL":78,"TEXCOORD_0":79},"indices":75,"material":1},{"attributes":{"POSITION":81,"TANGENT":82,"NORMAL":83,"TEXCOORD_0":84},"indices":80,"material":1},{"attributes":{"POSITION":86,"TANGENT":87,"NORMAL":88,"TEXCOORD_0":89},"indices":85,"material":1},{"attributes":{"POSITION":91,"TANGENT":92,"NORMAL":93,"TEXCOORD_0":94},"indices":90,"material":1},{"attributes":{"POSITION":96,"TANGENT":97,"NORMAL":98,"TEXCOORD_0":99},"indices":95,"material":1},{"attributes":{"POSITION":101,"TANGENT":102,"NORMAL":103,"TEXCOORD_0":104},"indices":100,"material":2},{"attributes":{"POSITION":106,"TANGENT":107,"NORMAL":108,"TEXCOORD_0":109},"indices":105,"material":3},{"attributes":{"POSITION":111,"TANGENT":112,"NORMAL":113,"TEXCOORD_0":114},"indices":110,"material":4},{"attributes":{"POSITION":116,"TANGENT":117,"NORMAL":118,"TEXCOORD_0":119},"indices":115,"material":5},{"attributes":{"POSITION":121,"TANGENT":122,"NORMAL":123,"TEXCOORD_0":124},"indices":120,"material":6},{"attributes":{"POSITION":126,"TANGENT":127,"NORMAL":128,"TEXCOORD_0":129},"indices":125,"material":7}],"name":"Caja_89"}],"accessors":[{"bufferView":0,"componentType":5125,"count":180,"type":"SCALAR","name":"accessorIndices"},{"bufferView":1,"componentType":5126,"count":96,"max":[-14.8261747,4.685564,81.01399],"min":[-16.6189747,3.18556356,74.16338],"type":"VEC3","name":"accessorPositions"},{"bufferView":2,"componentType":5126,"count":96,"type":"VEC4","name":"accessorTangents"},{"bufferView":1,"byteOffset":1152,"componentType":5126,"count":96,"type":"VEC3","name":"accessorNormals"},{"bufferView":3,"componentType":5126,"count":96,"type":"VEC2","name":"accessorUVs"},{"bufferView":0,"byteOffset":720,"componentType":5125,"count":180,"type":"SCALAR","name":"accessorIndices"},{"bufferView":1,"byteOffset":2304,"componentType":5126,"count":96,"max":[-6.436301,4.682687,81.6530762],"min":[-8.031603,3.18268633,75.0071259],"type":"VEC3","name":"accessorPositions"},{"bufferView":2,"byteOffset":1536,"componentType":5126,"count":96,"type":"VEC4","name":"accessorTangents"},{"bufferView":1,"byteOffset":3456,"componentType":5126,"count":96,"type":"VEC3","name":"accessorNormals"},{"bufferView":3,"byteOffset":768,"componentType":5126,"count":96,"type":"VEC2","name":"accessorUVs"},{"bufferView":0,"byteOffset":1440,"componentType":5125,"count":60,"type":"SCALAR","name":"accessorIndices"},{"bufferView":1,"byteOffset":4608,"componentType":5126,"count":32,"max":[-15.7710981,7.69214153,79.52858],"min":[-16.5211,6.192141,78.42858],"type":"VEC3","name":"accessorPositions"},{"bufferView":2,"byteOffset":3072,"componentType":5126,"count":32,"type":"VEC4","name":"accessorTangents"},{"bufferView":1,"byteOffset":4992,"componentType":5126,"count":32,"type":"VEC3","name":"accessorNormals"},{"bufferView":3,"byteOffset":1536,"componentType":5126,"count":32,"type":"VEC2","name":"accessorUVs"},{"bufferView":0,"byteOffset":1680,"componentType":5125,"count":60,"type":"SCALAR","name":"accessorIndices"},{"bufferView":1,"byteOffset":5376,"componentType":5126,"count":32,"max":[-10.7648554,4.699801,78.40335],"min":[-11.5148554,3.199801,77.30335],"type":"VEC3","name":"accessorPositions"},{"bufferView":2,"byteOffset":3584,"componentType":5126,"count":32,"type":"VEC4","name":"accessorTangents"},{"bufferView":1,"byteOffset":5760,"componentType":5126,"count":32,"type":"VEC3","name":"accessorNormals"},{"bufferView":3,"byteOffset":1792,"componentType":5126,"count":32,"type":"VEC2","name":"accessorUVs"},{"bufferView":0,"byteOffset":1920,"componentType":5125,"count":60,"type":"SCALAR","name":"accessorIndices"},{"bufferView":1,"byteOffset":6144,"componentType":5126,"count":32,"max":[-6.734266,7.710125,78.40335],"min":[-7.48426628,6.21012449,77.30335],"type":"VEC3","name":"accessorPositions"},{"bufferView":2,"byteOffset":4096,"componentType":5126,"count":32,"type":"VEC4","name":"accessorTangents"},{"bufferView":1,"byteOffset":6528,"componentType":5126,"count":32,"type":"VEC3","name":"accessorNormals"},{"bufferView":3,"byteOffset":2048,"componentType":5126,"count":32,"type":"VEC2","name":"accessorUVs"},{"bufferView":0,"byteOffset":2160,"componentType":5125,"count":60,"type":"SCALAR","name":"accessorIndices"},{"bufferView":1,"byteOffset":6912,"componentType":5126,"count":32,"max":[-8.560418,7.69214153,79.52858],"min":[-9.310418,6.192141,78.42858],"type":"VEC3","name":"accessorPositions"},{"bufferView":2,"byteOffset":4608,"componentType":5126,"count":32,"type":"VEC4","name":"accessorTangents"},{"bufferView":1,"byteOffset":7296,"componentType":5126,"count":32,"type":"VEC3","name":"accessorNormals"},{"bufferView":3,"byteOffset":2304,"componentType":5126,"count":32,"type":"VEC2","name":"accessorUVs"},{"bufferView":0,"byteOffset":2400,"componentType":5125,"count":60,"type":"SCALAR","name":"accessorIndices"},{"bufferView":1,"byteOffset":7680,"componentType":5126,"count":32,"max":[-7.73145437,7.69214153,79.52858],"min":[-8.481455,6.192141,78.42858],"type":"VEC3","name":"accessorPositions"},{"bufferView":2,"byteOffset":5120,"componentType":5126,"count":32,"type":"VEC4","name":"accessorTangents"},{"bufferView":1,"byteOffset":8064,"componentType":5126,"count":32,"type":"VEC3","name":"accessorNormals"},{"bufferView":3,"byteOffset":2560,"componentType":5126,"count":32,"type":"VEC2","name":"accessorUVs"},{"bufferView":0,"byteOffset":2640,"componentType":5125,"count":60,"type":"SCALAR","name":"accessorIndices"},{"bufferView":1,"byteOffset":8448,"componentType":5126,"count":32,"max":[-7.73145437,10.7070436,78.57163],"min":[-8.481455,9.207044,77.47163],"type":"VEC3","name":"accessorPositions"},{"bufferView":2,"byteOffset":5632,"componentType":5126,"count":32,"type":"VEC4","name":"accessorTangents"},{"bufferView":1,"byteOffset":8832,"componentType":5126,"count":32,"type":"VEC3","name":"accessorNormals"},{"bufferView":3,"byteOffset":2816,"componentType":5126,"count":32,"type":"VEC2","name":"accessorUVs"},{"bufferView":0,"byteOffset":2880,"componentType":5125,"count":60,"type":"SCALAR","name":"accessorIndices"},{"bufferView":1,"byteOffset":9216,"componentType":5126,"count":32,"max":[-8.606942,10.7052631,78.57163],"min":[-9.356943,9.205263,77.47163],"type":"VEC3","name":"accessorPositions"},{"bufferView":2,"byteOffset":6144,"componentType":5126,"count":32,"type":"VEC4","name":"accessorTangents"},{"bufferView":1,"byteOffset":9600,"componentType":5126,"count":32,"type":"VEC3","name":"accessorNormals"},{"bufferView":3,"byteOffset":3072,"componentType":5126,"count":32,"type":"VEC2","name":"accessorUVs"},{"bufferView":0,"byteOffset":3120,"componentType":5125,"count":60,"type":"SCALAR","name":"accessorIndices"},{"bufferView":1,"byteOffset":9984,"componentType":5126,"count":32,"max":[-6.846922,10.706089,78.57163],"min":[-7.5969224,9.206089,77.47163],"type":"VEC3","name":"accessorPositions"},{"bufferView":2,"byteOffset":6656,"componentType":5126,"count":32,"type":"VEC4","name":"accessorTangents"},{"bufferView":1,"byteOffset":10368,"componentType":5126,"count":32,"type":"VEC3","name":"accessorNormals"},{"bufferView":3,"byteOffset":3328,"componentType":5126,"count":32,"type":"VEC2","name":"accessorUVs"},{"bufferView":0,"byteOffset":3360,"componentType":5125,"count":2340,"type":"SCALAR","name":"accessorIndices"},{"bufferView":1,"byteOffset":10752,"componentType":5126,"count":1488,"max":[-14.8037672,3.18554068,81.0639954],"min":[-16.64657,3.04154038,74.11338],"type":"VEC3","name":"accessorPositions"},{"bufferView":2,"byteOffset":7168,"componentType":5126,"count":1488,"type":"VEC4","name":"accessorTangents"},{"bufferView":1,"byteOffset":28608,"componentType":5126,"count":1488,"type":"VEC3","name":"accessorNormals"},{"bufferView":3,"byteOffset":3584,"componentType":5126,"count":1488,"type":"VEC2","name":"accessorUVs"},{"bufferView":0,"byteOffset":12720,"componentType":5125,"count":2340,"type":"SCALAR","name":"accessorIndices"},{"bufferView":1,"byteOffset":46464,"componentType":5126,"count":1488,"max":[-6.4138937,3.18266344,81.70307],"min":[-8.059196,3.03866315,74.95713],"type":"VEC3","name":"accessorPositions"},{"bufferView":2,"byteOffset":30976,"componentType":5126,"count":1488,"type":"VEC4","name":"accessorTangents"},{"bufferView":1,"byteOffset":64320,"componentType":5126,"count":1488,"type":"VEC3","name":"accessorNormals"},{"bufferView":3,"byteOffset":15488,"componentType":5126,"count":1488,"type":"VEC2","name":"accessorUVs"},{"bufferView":0,"byteOffset":22080,"componentType":5125,"count":780,"type":"SCALAR","name":"accessorIndices"},{"bufferView":1,"byteOffset":82176,"componentType":5126,"count":496,"max":[-15.7486906,6.19211769,79.57858],"min":[-16.5486927,6.048118,78.3785858],"type":"VEC3","name":"accessorPositions"},{"bufferView":2,"byteOffset":54784,"componentType":5126,"count":496,"type":"VEC4","name":"accessorTangents"},{"bufferView":1,"byteOffset":88128,"componentType":5126,"count":496,"type":"VEC3","name":"accessorNormals"},{"bufferView":3,"byteOffset":27392,"componentType":5126,"count":496,"type":"VEC2","name":"accessorUVs"},{"bufferView":0,"byteOffset":25200,"componentType":5125,"count":780,"type":"SCALAR","name":"accessorIndices"},{"bufferView":1,"byteOffset":94080,"componentType":5126,"count":496,"max":[-10.7424488,3.19977784,78.4533539],"min":[-11.542448,3.05577755,77.25335],"type":"VEC3","name":"accessorPositions"},{"bufferView":2,"byteOffset":62720,"componentType":5126,"count":496,"type":"VEC4","name":"accessorTangents"},{"bufferView":1,"byteOffset":100032,"componentType":5126,"count":496,"type":"VEC3","name":"accessorNormals"},{"bufferView":3,"byteOffset":31360,"componentType":5126,"count":496,"type":"VEC2","name":"accessorUVs"},{"bufferView":0,"byteOffset":28320,"componentType":5125,"count":780,"type":"SCALAR","name":"accessorIndices"},{"bufferView":1,"byteOffset":105984,"componentType":5126,"count":496,"max":[-6.711858,6.210101,78.4533539],"min":[-7.51185846,6.06610155,77.25335],"type":"VEC3","name":"accessorPositions"},{"bufferView":2,"byteOffset":70656,"componentType":5126,"count":496,"type":"VEC4","name":"accessorTangents"},{"bufferView":1,"byteOffset":111936,"componentType":5126,"count":496,"type":"VEC3","name":"accessorNormals"},{"bufferView":3,"byteOffset":35328,"componentType":5126,"count":496,"type":"VEC2","name":"accessorUVs"},{"bufferView":0,"byteOffset":31440,"componentType":5125,"count":780,"type":"SCALAR","name":"accessorIndices"},{"bufferView":1,"byteOffset":117888,"componentType":5126,"count":496,"max":[-8.538012,6.19211769,79.57858],"min":[-9.338012,6.048118,78.3785858],"type":"VEC3","name":"accessorPositions"},{"bufferView":2,"byteOffset":78592,"componentType":5126,"count":496,"type":"VEC4","name":"accessorTangents"},{"bufferView":1,"byteOffset":123840,"componentType":5126,"count":496,"type":"VEC3","name":"accessorNormals"},{"bufferView":3,"byteOffset":39296,"componentType":5126,"count":496,"type":"VEC2","name":"accessorUVs"},{"bufferView":0,"byteOffset":34560,"componentType":5125,"count":780,"type":"SCALAR","name":"accessorIndices"},{"bufferView":1,"byteOffset":129792,"componentType":5126,"count":496,"max":[-7.709048,6.19211769,79.57858],"min":[-8.509048,6.048118,78.3785858],"type":"VEC3","name":"accessorPositions"},{"bufferView":2,"byteOffset":86528,"componentType":5126,"count":496,"type":"VEC4","name":"accessorTangents"},{"bufferView":1,"byteOffset":135744,"componentType":5126,"count":496,"type":"VEC3","name":"accessorNormals"},{"bufferView":3,"byteOffset":43264,"componentType":5126,"count":496,"type":"VEC2","name":"accessorUVs"},{"bufferView":0,"byteOffset":37680,"componentType":5125,"count":780,"type":"SCALAR","name":"accessorIndices"},{"bufferView":1,"byteOffset":141696,"componentType":5126,"count":496,"max":[-8.584536,9.205239,78.62163],"min":[-9.384536,9.061239,77.42163],"type":"VEC3","name":"accessorPositions"},{"bufferView":2,"byteOffset":94464,"componentType":5126,"count":496,"type":"VEC4","name":"accessorTangents"},{"bufferView":1,"byteOffset":147648,"componentType":5126,"count":496,"type":"VEC3","name":"accessorNormals"},{"bufferView":3,"byteOffset":47232,"componentType":5126,"count":496,"type":"VEC2","name":"accessorUVs"},{"bufferView":0,"byteOffset":40800,"componentType":5125,"count":780,"type":"SCALAR","name":"accessorIndices"},{"bufferView":1,"byteOffset":153600,"componentType":5126,"count":496,"max":[-6.824514,9.206066,78.62163],"min":[-7.62451458,9.062066,77.42163],"type":"VEC3","name":"accessorPositions"},{"bufferView":2,"byteOffset":102400,"componentType":5126,"count":496,"type":"VEC4","name":"accessorTangents"},{"bufferView":1,"byteOffset":159552,"componentType":5126,"count":496,"type":"VEC3","name":"accessorNormals"},{"bufferView":3,"byteOffset":51200,"componentType":5126,"count":496,"type":"VEC2","name":"accessorUVs"},{"bufferView":0,"byteOffset":43920,"componentType":5125,"count":780,"type":"SCALAR","name":"accessorIndices"},{"bufferView":1,"byteOffset":165504,"componentType":5126,"count":496,"max":[-7.709048,9.207021,78.62163],"min":[-8.509048,9.063021,77.42163],"type":"VEC3","name":"accessorPositions"},{"bufferView":2,"byteOffset":110336,"componentType":5126,"count":496,"type":"VEC4","name":"accessorTangents"},{"bufferView":1,"byteOffset":171456,"componentType":5126,"count":496,"type":"VEC3","name":"accessorNormals"},{"bufferView":3,"byteOffset":55168,"componentType":5126,"count":496,"type":"VEC2","name":"accessorUVs"},{"bufferView":0,"byteOffset":47040,"componentType":5125,"count":208176,"type":"SCALAR","name":"accessorIndices"},{"bufferView":1,"byteOffset":177408,"componentType":5126,"count":107918,"max":[-5.42349148,10.0444288,83.16873],"min":[-17.64796,-9.384155E-06,72.87473],"type":"VEC3","name":"accessorPositions"},{"bufferView":2,"byteOffset":118272,"componentType":5126,"count":107918,"type":"VEC4","name":"accessorTangents"},{"bufferView":1,"byteOffset":1472424,"componentType":5126,"count":107918,"type":"VEC3","name":"accessorNormals"},{"bufferView":3,"byteOffset":59136,"componentType":5126,"count":107918,"type":"VEC2","name":"accessorUVs"},{"bufferView":0,"byteOffset":879744,"componentType":5125,"count":3480,"type":"SCALAR","name":"accessorIndices"},{"bufferView":1,"byteOffset":2767440,"componentType":5126,"count":2320,"max":[-5.474981,9.554687,83.1267853],"min":[-17.5941334,3.23449087,72.9151],"type":"VEC3","name":"accessorPositions"},{"bufferView":2,"byteOffset":1844960,"componentType":5126,"count":2320,"type":"VEC4","name":"accessorTangents"},{"bufferView":1,"byteOffset":2795280,"componentType":5126,"count":2320,"type":"VEC3","name":"accessorNormals"},{"bufferView":3,"byteOffset":922480,"componentType":5126,"count":2320,"type":"VEC2","name":"accessorUVs"},{"bufferView":0,"byteOffset":893664,"componentType":5125,"count":6522,"type":"SCALAR","name":"accessorIndices"},{"bufferView":1,"byteOffset":2823120,"componentType":5126,"count":1540,"max":[-12.6882811,11.053813,82.78484],"min":[-16.3630486,9.038512,79.8857346],"type":"VEC3","name":"accessorPositions"},{"bufferView":2,"byteOffset":1882080,"componentType":5126,"count":1540,"type":"VEC4","name":"accessorTangents"},{"bufferView":1,"byteOffset":2841600,"componentType":5126,"count":1540,"type":"VEC3","name":"accessorNormals"},{"bufferView":3,"byteOffset":941040,"componentType":5126,"count":1540,"type":"VEC2","name":"accessorUVs"},{"bufferView":0,"byteOffset":919752,"componentType":5125,"count":6,"type":"SCALAR","name":"accessorIndices"},{"bufferView":1,"byteOffset":2860080,"componentType":5126,"count":4,"max":[-11.87183,9.040123,82.90374],"min":[-16.3925381,9.040123,79.58302],"type":"VEC3","name":"accessorPositions"},{"bufferView":2,"byteOffset":1906720,"componentType":5126,"count":4,"type":"VEC4","name":"accessorTangents"},{"bufferView":1,"byteOffset":2860128,"componentType":5126,"count":4,"type":"VEC3","name":"accessorNormals"},{"bufferView":3,"byteOffset":953360,"componentType":5126,"count":4,"type":"VEC2","name":"accessorUVs"},{"bufferView":0,"byteOffset":919776,"componentType":5125,"count":2316,"type":"SCALAR","name":"accessorIndices"},{"bufferView":1,"byteOffset":2860176,"componentType":5126,"count":892,"max":[-11.7821846,11.6401243,82.99338],"min":[-16.4822311,9.040037,79.493],"type":"VEC3","name":"accessorPositions"},{"bufferView":2,"byteOffset":1906784,"componentType":5126,"count":892,"type":"VEC4","name":"accessorTangents"},{"bufferView":1,"byteOffset":2870880,"componentType":5126,"count":892,"type":"VEC3","name":"accessorNormals"},{"bufferView":3,"byteOffset":953392,"componentType":5126,"count":892,"type":"VEC2","name":"accessorUVs"},{"bufferView":0,"byteOffset":929040,"componentType":5125,"count":18582,"type":"SCALAR","name":"accessorIndices"},{"bufferView":1,"byteOffset":2881584,"componentType":5126,"count":5134,"max":[-12.57712,10.1805172,81.50954],"min":[-14.4714108,9.030512,79.71444],"type":"VEC3","name":"accessorPositions"},{"bufferView":2,"byteOffset":1921056,"componentType":5126,"count":5134,"type":"VEC4","name":"accessorTangents"},{"bufferView":1,"byteOffset":2943192,"componentType":5126,"count":5134,"type":"VEC3","name":"accessorNormals"},{"bufferView":3,"byteOffset":960528,"componentType":5126,"count":5134,"type":"VEC2","name":"accessorUVs"}],"bufferViews":[{"buffer":0,"byteLength":1003368,"name":"bufferViewScalar"},{"buffer":0,"byteOffset":1003368,"byteLength":3004800,"byteStride":12,"name":"bufferViewFloatVec3"},{"buffer":0,"byteOffset":4008168,"byteLength":2003200,"byteStride":16,"name":"bufferViewFloatVec4"},{"buffer":0,"byteOffset":6011368,"byteLength":1001600,"byteStride":8,"name":"bufferViewFloatVec2"}],"buffers":[{"uri":"Estanteria_Entreplantas.bin","byteLength":7012968}],"materials":[{"pbrMetallicRoughness":{"baseColorTexture":{"index":0},"metallicFactor":0.0604026839,"roughnessFactor":0.5704698},"alphaMode":"MASK","doubleSided":true,"name":"Cargas_Mat"},{"pbrMetallicRoughness":{"baseColorFactor":[0.8,0.8,0.8,1.0],"baseColorTexture":{"index":1},"metallicFactor":0.0,"roughnessFactor":0.2},"alphaMode":"MASK","doubleSided":true,"name":"Atrezzo_Convencional:Palet_Cajas_Mat"},{"pbrMetallicRoughness":{"baseColorTexture":{"index":3},"metallicRoughnessTexture":{"index":4}},"normalTexture":{"index":2},"alphaMode":"MASK","doubleSided":true,"name":"aiStandardSurface2"},{"pbrMetallicRoughness":{"baseColorFactor":[0.5,0.5,0.5,1.0],"metallicFactor":0.0,"roughnessFactor":0.450053632},"alphaMode":"MASK","doubleSided":true,"name":"lambert1"},{"pbrMetallicRoughness":{"baseColorTexture":{"index":6},"metallicFactor":0.0,"roughnessFactor":0.5704698},"normalTexture":{"index":5},"alphaMode":"MASK","doubleSided":true,"name":"Ordenador_Mat"},{"pbrMetallicRoughness":{"baseColorFactor":[0.8,0.8,0.8,1.0],"metallicFactor":0.0,"roughnessFactor":0.2},"alphaMode":"MASK","doubleSided":true,"name":"aiStandardSurface6"},{"pbrMetallicRoughness":{"baseColorTexture":{"index":7},"metallicFactor":0.0},"alphaMode":"MASK","doubleSided":true,"name":"Oficina_Mat"},{"pbrMetallicRoughness":{"baseColorTexture":{"index":8},"metallicFactor":0.012987013,"roughnessFactor":0.350649357},"alphaMode":"MASK","doubleSided":true,"name":"Muebles_Mat1"}],"textures":[{"sampler":0,"source":0,"name":"Cajas_DefaultMaterial_BaseColor_512.png"},{"sampler":0,"source":1,"name":"palette_Diffuse.png"},{"sampler":0,"source":2,"name":"Estanteria_Entreplanta_Normal.png"},{"sampler":0,"source":3,"name":"Estanteria_Entreplanta_BaseColor_Alpha.png"},{"sampler":0,"source":4,"name":"file35file34.jpg"},{"sampler":0,"source":5,"name":"Ordenador_Low_Ordenador_Mat_Normal.png"},{"sampler":0,"source":6,"name":"Ordenador_Low_Ordenador_Mat_BaseColor.png"},{"sampler":0,"source":7,"name":"Oficina5_lambert1_BaseColor_1K.png"},{"sampler":0,"source":8,"name":"Muebles_DefaultMaterial_BaseColor.png"}],"images":[{"uri":"Cajas_DefaultMaterial_BaseColor_512.png"},{"uri":"palette_Diffuse.png"},{"uri":"Estanteria_Entreplanta_Normal.png"},{"uri":"Estanteria_Entreplanta_BaseColor_Alpha.png"},{"uri":"file35file34.jpg"},{"uri":"Ordenador_Low_Ordenador_Mat_Normal.png"},{"uri":"Ordenador_Low_Ordenador_Mat_BaseColor.png"},{"uri":"Oficina5_lambert1_BaseColor_1K.png"},{"uri":"Muebles_DefaultMaterial_BaseColor.png"}],"samplers":[{"magFilter":9729,"minFilter":9987}]}