{"asset":{"version":"2.0","generator":"babylon.js glTF exporter for Maya 2018 v20200617.6"},"scene":0,"scenes":[{"nodes":[0]}],"nodes":[{"children":[1,2],"name":"group1"},{"mesh":0,"name":"Bases1","extras":{"currentUVSet":"map1"}},{"mesh":1,"name":"Carga_2","extras":{"currentUVSet":"map1"}}],"meshes":[{"primitives":[{"attributes":{"POSITION":1,"TANGENT":2,"NORMAL":3,"TEXCOORD_0":4},"indices":0,"material":0}],"name":"Bases1"},{"primitives":[{"attributes":{"POSITION":6,"TANGENT":7,"NORMAL":8,"TEXCOORD_0":9},"indices":5,"material":1}],"name":"Carga_2"}],"accessors":[{"bufferView":0,"componentType":5125,"count":932580,"type":"SCALAR","name":"accessorIndices"},{"bufferView":1,"componentType":5126,"count":385834,"max":[7.16626453,7.56341171,4.96099234],"min":[-6.73739433,-0.00162445067,-4.960996],"type":"VEC3","name":"accessorPositions"},{"bufferView":2,"componentType":5126,"count":385834,"type":"VEC4","name":"accessorTangents"},{"bufferView":1,"byteOffset":4630008,"componentType":5126,"count":385834,"type":"VEC3","name":"accessorNormals"},{"bufferView":3,"componentType":5126,"count":385834,"type":"VEC2","name":"accessorUVs"},{"bufferView":0,"byteOffset":3730320,"componentType":5123,"count":11628,"type":"SCALAR","name":"accessorIndices"},{"bufferView":1,"byteOffset":9260016,"componentType":5126,"count":3702,"max":[7.47956848,4.71657658,4.50158644],"min":[-7.47956753,1.78610659,-4.846787],"type":"VEC3","name":"accessorPositions"},{"bufferView":2,"byteOffset":6173344,"componentType":5126,"count":3702,"type":"VEC4","name":"accessorTangents"},{"bufferView":1,"byteOffset":9304440,"componentType":5126,"count":3702,"type":"VEC3","name":"accessorNormals"},{"bufferView":3,"byteOffset":3086672,"componentType":5126,"count":3702,"type":"VEC2","name":"accessorUVs"}],"bufferViews":[{"buffer":0,"byteLength":3753576,"name":"bufferViewScalar"},{"buffer":0,"byteOffset":3753576,"byteLength":9348864,"byteStride":12,"name":"bufferViewFloatVec3"},{"buffer":0,"byteOffset":13102440,"byteLength":6232576,"byteStride":16,"name":"bufferViewFloatVec4"},{"buffer":0,"byteOffset":19335016,"byteLength":3116288,"byteStride":8,"name":"bufferViewFloatVec2"}],"buffers":[{"uri":"Cantilever.bin","byteLength":22451304}],"materials":[{"pbrMetallicRoughness":{"baseColorTexture":{"index":0},"metallicFactor":0.0,"roughnessFactor":0.2},"name":"aiStandardSurface2"},{"pbrMetallicRoughness":{"baseColorFactor":[0.8,0.8,0.8,1.0],"baseColorTexture":{"index":1},"metallicRoughnessTexture":{"index":2}},"name":"aiStandardSurface1"}],"textures":[{"sampler":0,"source":0,"name":"Cantilever_Conectores.png"},{"sampler":0,"source":1,"name":"CargasCantilever_DefaultMaterial_BaseColor.png"},{"sampler":0,"source":2,"name":"file20.jpg"}],"images":[{"uri":"Cantilever_Conectores.png"},{"uri":"CargasCantilever_DefaultMaterial_BaseColor.png"},{"uri":"file20.jpg"}],"samplers":[{"magFilter":9729,"minFilter":9987}]}